<svg id="Layer_1" data-name="Layer 1" xmlns="http://www.w3.org/2000/svg" viewBox="0 0 906.52 63.84"><defs><style>.cls-1{fill:#fff;}</style></defs><title>jelmervanderlinde</title><path class="cls-1" d="M720.54,767.29c0,12.31-7,18.85-19.53,18.85a21.71,21.71,0,0,1-14.67-6l4.56-11.93s4.48,4.26,8.13,4.26c4.1,0,7.22-2.51,7.22-8.82V722.3h14.29Z" transform="translate(-686.34 -722.3)"/><path class="cls-1" d="M764.77,734.84H743.19V747.3h20.67v12.54H743.19v12.62h21.58V785H728.9V722.3h35.87Z" transform="translate(-686.34 -722.3)"/><path class="cls-1" d="M787.26,772.46h21.58V785H773V722.3h14.29Z" transform="translate(-686.34 -722.3)"/><path class="cls-1" d="M864.78,747.83h-.38l-12.84,36.79H843L830.2,747.83h-.38l-3,37.17H812.57l5.62-62.7h15.2l13.91,36.18,13.91-36.18h15.2L882,785H867.75Z" transform="translate(-686.34 -722.3)"/><path class="cls-1" d="M923.68,734.84H902.1V747.3h20.67v12.54H902.1v12.62h21.58V785H887.81V722.3h35.87Z" transform="translate(-686.34 -722.3)"/><path class="cls-1" d="M954.31,722.3c11.63,0,20.45,6.31,20.45,18.62,0,9.42-5.17,15.73-12.84,18.17L983.5,785H965.33l-19.15-24.78V785H931.89V722.3Zm-6.46,27.82c5.4,0,11.86-.38,11.86-8.21s-6.46-8.21-11.86-8.21h-1.67v16.42Z" transform="translate(-686.34 -722.3)"/><path class="cls-1" d="M994,722.3h16.11l15.81,41.19,15.81-41.19h16.11l-26.3,62.7h-11.25Z" transform="translate(-686.34 -722.3)"/><path class="cls-1" d="M1110.49,785h-15.35l-4.64-12.54h-23.87L1062,785h-15.35L1072,722.3h13.22Zm-31.85-43.32h-.15l-7,18.24h14.14Z" transform="translate(-686.34 -722.3)"/><path class="cls-1" d="M1127.21,785h-14.29V722.3h14.29l24.93,38.91h.15V722.3h14.29V785h-14.29l-24.93-38.91h-.15Z" transform="translate(-686.34 -722.3)"/><path class="cls-1" d="M1214.61,722.3c17.18,0,31.62,13.07,31.62,31.31S1231.86,785,1214.61,785h-18.17V722.3Zm-1.67,49.93c10.56,0,17.78-8.06,17.86-18.54s-7.22-18.62-17.86-18.62h-2.2v37.17Z" transform="translate(-686.34 -722.3)"/><path class="cls-1" d="M1288.4,734.84h-21.58V747.3h20.67v12.54h-20.67v12.62h21.58V785h-35.87V722.3h35.87Z" transform="translate(-686.34 -722.3)"/><path class="cls-1" d="M1319,722.3c11.63,0,20.45,6.31,20.45,18.62,0,9.42-5.17,15.73-12.84,18.17L1348.21,785h-18.16l-19.15-24.78V785h-14.29V722.3Zm-6.46,27.82c5.4,0,11.86-.38,11.86-8.21s-6.46-8.21-11.86-8.21h-1.67v16.42Z" transform="translate(-686.34 -722.3)"/><path class="cls-1" d="M1386.06,772.46h21.58V785h-35.87V722.3h14.29Z" transform="translate(-686.34 -722.3)"/><path class="cls-1" d="M1429,785h-14.29V722.3H1429Z" transform="translate(-686.34 -722.3)"/><path class="cls-1" d="M1452.41,785h-14.29V722.3h14.29l24.93,38.91h.15V722.3h14.29V785h-14.29l-24.93-38.91h-.15Z" transform="translate(-686.34 -722.3)"/><path class="cls-1" d="M1519.06,722.3c17.18,0,31.62,13.07,31.62,31.31S1536.31,785,1519.06,785h-18.17V722.3Zm-1.67,49.93c10.56,0,17.78-8.06,17.86-18.54s-7.22-18.62-17.86-18.62h-2.21v37.17Z" transform="translate(-686.34 -722.3)"/><path class="cls-1" d="M1592.85,734.84h-21.58V747.3h20.67v12.54h-20.67v12.62h21.58V785H1557V722.3h35.87Z" transform="translate(-686.34 -722.3)"/></svg>